<svg xmlns="http://www.w3.org/2000/svg" width="1200" height="630" viewBox="0 0 1200 630" role="img" aria-label="AI integration header">
  <defs>
    <linearGradient id="bg" x1="0" y1="0" x2="1" y2="1">
      <stop offset="0%" stop-color="#0f172a"/>
      <stop offset="100%" stop-color="#1f2937"/>
    </linearGradient>
    <linearGradient id="glow" x1="0" y1="0" x2="1" y2="0">
      <stop offset="0%" stop-color="#38bdf8" stop-opacity="0.2"/>
      <stop offset="100%" stop-color="#22c55e" stop-opacity="0.2"/>
    </linearGradient>
  </defs>
  <rect width="1200" height="630" fill="url(#bg)"/>
  <rect x="90" y="110" width="1020" height="410" rx="26" fill="url(#glow)" stroke="#334155" stroke-width="2"/>
  <g fill="#e2e8f0" font-family="ui-monospace, SFMono-Regular, Menlo, Monaco, Consolas, 'Liberation Mono', 'Courier New', monospace">
    <text x="120" y="200" font-size="28">Ollama + APIs</text>
    <text x="120" y="260" font-size="56">AI Integration</text>
    <text x="120" y="320" font-size="28" fill="#94a3b8">Local model, real system, clean output</text>
  </g>
  <g stroke="#38bdf8" stroke-width="2" fill="none" opacity="0.7">
    <path d="M140 420 H1060"/>
    <path d="M140 420 V460"/>
    <path d="M1060 420 V460"/>
    <path d="M220 420 V460"/>
    <path d="M300 420 V460"/>
    <path d="M380 420 V460"/>
    <path d="M460 420 V460"/>
    <path d="M540 420 V460"/>
    <path d="M620 420 V460"/>
    <path d="M700 420 V460"/>
    <path d="M780 420 V460"/>
    <path d="M860 420 V460"/>
    <path d="M940 420 V460"/>
  </g>
  <g font-family="ui-monospace, SFMono-Regular, Menlo, Monaco, Consolas, 'Liberation Mono', 'Courier New', monospace" fill="#94a3b8" font-size="12" opacity="0.5">
    <text x="1130" y="610" text-anchor="end">https://arshimtiaz.github.io</text>
  </g>
</svg>
